<?xml version="1.0" standalone="no"?>
<!DOCTYPE svg PUBLIC "-//W3C//DTD SVG 20010904//EN"
 "http://www.w3.org/TR/2001/REC-SVG-20010904/DTD/svg10.dtd">
<svg version="1.0" xmlns="http://www.w3.org/2000/svg"
 width="1024.000000pt" height="1024.000000pt" viewBox="0 0 1024.000000 1024.000000"
 preserveAspectRatio="xMidYMid meet">

<g transform="translate(0.000000,1024.000000) scale(0.100000,-0.100000)"
fill="#000000" stroke="none">
<path d="M4945 7284 c-356 -41 -598 -109 -870 -243 -516 -256 -907 -645 -1150
-1144 -93 -192 -138 -313 -185 -502 -59 -231 -74 -349 -74 -580 0 -284 31
-469 131 -770 72 -216 175 -409 326 -610 309 -410 759 -749 1182 -890 297 -99
516 -137 800 -138 261 0 434 25 687 99 302 88 619 253 858 448 340 275 687
767 810 1147 86 265 115 449 115 739 -1 302 -43 553 -141 830 -61 175 -208
466 -293 580 -122 165 -310 365 -462 493 -159 133 -490 320 -709 401 -260 95
-565 147 -845 145 -82 -1 -163 -4 -180 -5z m525 -135 c231 -33 460 -102 685
-208 472 -223 890 -653 1110 -1141 138 -307 204 -619 205 -965 0 -346 -68
-641 -226 -984 l-52 -114 -154 -52 c-370 -125 -599 -240 -993 -501 -93 -62
-196 -126 -227 -143 -67 -35 -50 -38 -263 49 -296 121 -619 226 -657 214 -15
-4 -18 -3 -13 6 5 9 4 11 -4 6 -9 -6 -9 -11 0 -22 9 -11 8 -14 -7 -14 -16 0
-17 -2 -4 -11 12 -8 8 -9 -15 -5 -16 3 -24 3 -17 0 18 -8 15 -34 -5 -35 -17
-1 -17 -2 0 -6 9 -2 17 -11 17 -19 0 -8 4 -14 10 -14 5 0 8 6 6 13 -1 6 -1 9
1 5 3 -5 12 -8 21 -8 13 0 14 -2 4 -9 -19 -11 13 -24 40 -15 12 4 18 1 16 -8
-2 -8 7 -13 24 -13 14 1 25 -2 23 -5 -6 -10 123 -62 135 -55 6 4 9 2 8 -3 -2
-5 42 -33 97 -62 55 -29 107 -59 115 -67 28 -29 -67 -5 -214 53 -76 30 -145
53 -153 50 -8 -3 -12 -2 -9 3 7 11 -80 44 -116 44 -15 0 -25 4 -22 9 3 4 1 8
-5 8 -5 0 -13 -5 -17 -11 -4 -8 -11 -4 -19 11 -13 23 -13 23 -19 2 -4 -11 -13
-19 -19 -16 -7 2 -22 -5 -34 -16 -12 -11 -27 -20 -33 -20 -14 0 -13 -17 3 -24
6 -3 -1 -3 -16 1 -17 3 -27 1 -25 -5 2 -6 -6 -18 -17 -26 -19 -15 -19 -16 -1
-9 12 4 17 3 13 -4 -8 -13 20 -26 35 -16 7 3 8 1 4 -5 -4 -7 12 -21 41 -36 62
-32 43 -33 -43 -1 -130 49 -349 164 -559 295 -232 144 -499 284 -675 353 -120
46 -306 109 -376 127 -39 9 -41 13 -83 105 -96 216 -165 452 -197 670 -21 143
-24 442 -5 585 88 689 479 1309 1076 1705 320 213 763 358 1150 379 113 5 320
-6 455 -25z"/>
<path d="M5483 6694 c-85 -22 -154 -63 -224 -133 -65 -66 -129 -174 -129 -219
0 -39 -16 -30 -44 24 -40 76 -132 169 -199 199 -73 34 -157 48 -231 40 -87
-10 -222 -51 -286 -87 -59 -33 -153 -98 -148 -103 2 -2 26 1 53 6 28 6 101 13
163 17 112 7 112 7 112 -15 0 -19 5 -23 28 -22 15 0 36 4 47 8 12 5 24 3 32
-5 7 -7 23 -10 35 -6 20 5 21 3 10 -10 -15 -19 0 -27 56 -29 22 -1 28 -3 15
-6 -12 -2 -27 -10 -33 -18 -9 -11 -7 -12 8 -8 13 3 25 -3 34 -16 8 -11 39 -29
69 -40 65 -25 119 -57 119 -71 0 -13 -17 -13 -25 0 -3 5 -42 21 -86 35 -249
78 -508 -34 -626 -273 -37 -73 -38 -80 -38 -181 0 -70 5 -116 14 -136 l14 -30
14 70 c11 51 25 83 51 118 35 45 37 47 43 25 5 -22 6 -21 12 7 4 17 6 39 4 49
-1 10 4 21 11 23 7 3 12 -5 12 -21 0 -32 20 -76 34 -76 6 0 19 20 29 44 10 24
38 67 62 95 l45 53 0 -51 c0 -27 4 -52 9 -55 4 -3 22 12 38 32 39 48 138 102
187 102 21 0 50 -7 65 -14 15 -8 39 -13 52 -10 18 4 14 -1 -16 -20 -208 -133
-328 -457 -270 -730 19 -89 79 -218 129 -276 51 -59 165 -150 189 -150 16 0
14 7 -16 48 -48 66 -146 267 -135 277 2 2 27 -3 57 -11 92 -23 96 5 14 97
l-58 64 48 -39 c45 -37 49 -38 65 -23 15 16 15 20 -6 59 -12 24 -34 61 -48 83
l-26 40 38 -36 c22 -20 51 -39 65 -41 24 -4 27 -1 33 31 11 66 6 93 -25 148
-17 30 -28 57 -25 60 3 4 6 2 6 -4 0 -6 25 -38 55 -72 l54 -61 10 38 c5 20 13
77 16 127 3 49 9 93 11 97 9 14 19 9 29 -14 6 -11 26 -29 45 -40 19 -10 38
-28 42 -41 11 -39 8 -265 -7 -547 -8 -151 -19 -383 -25 -515 -5 -132 -16 -294
-25 -360 -33 -251 -101 -517 -177 -690 -21 -49 -41 -94 -44 -100 -2 -6 60 -27
139 -48 78 -21 188 -56 244 -77 l102 -38 78 23 c111 33 228 63 301 78 l63 12
-98 28 c-169 46 -230 53 -340 38 -54 -8 -116 -15 -138 -17 -39 -3 -39 -3 12
13 l52 16 7 66 c9 82 -2 940 -16 1226 -5 116 -14 327 -20 470 -5 143 -12 303
-15 355 -4 91 -3 96 21 125 21 25 25 27 23 10 -3 -37 1 -70 11 -85 8 -12 15
-9 45 20 19 18 35 29 35 24 0 -6 -11 -21 -25 -34 -33 -31 -32 -56 5 -75 25
-13 30 -22 30 -50 0 -48 19 -45 71 10 23 24 44 43 47 41 2 -3 -8 -32 -23 -65
-15 -33 -28 -69 -28 -78 0 -10 1 -40 2 -66 l1 -48 24 18 c13 10 32 33 42 51
26 49 26 33 -1 -44 -24 -68 -31 -104 -19 -104 3 0 19 11 35 24 21 18 46 26 96
31 38 3 73 8 79 10 33 10 46 255 19 360 -41 160 -157 333 -253 376 l-47 21 74
19 c41 10 84 16 94 13 10 -3 53 -38 94 -77 84 -80 93 -79 93 12 0 63 10 59 34
-14 21 -63 56 -125 79 -139 23 -14 47 15 47 58 0 19 4 26 9 21 15 -16 101
-223 101 -244 0 -36 17 -31 29 8 16 55 14 188 -5 252 -37 129 -139 255 -244
303 -102 47 -200 55 -364 30 -56 -9 -38 11 28 30 30 9 65 16 78 16 12 0 29 4
37 9 11 7 7 13 -18 29 l-32 19 33 7 c108 21 123 33 93 66 -14 16 -8 18 87 29
98 11 210 5 262 -15 33 -13 14 5 -49 46 -130 85 -268 121 -387 100 -84 -14
-181 -63 -235 -116 -24 -24 -43 -40 -43 -36 0 21 46 76 86 105 32 22 55 50 76
91 16 32 28 59 26 61 -2 1 -27 -3 -55 -11z"/>
<path d="M4930 6583 c42 -28 117 -115 155 -178 26 -44 35 -53 35 -37 0 24 23
78 59 135 l21 35 -23 15 c-41 27 -128 47 -201 47 -69 0 -70 0 -46 -17z"/>
<path d="M4522 5935 c0 -16 2 -22 5 -12 2 9 2 23 0 30 -3 6 -5 -1 -5 -18z"/>
<path d="M3971 5409 c-65 -26 -141 -110 -141 -158 l0 -26 -25 31 c-37 47 -135
87 -222 91 -43 1 -73 -1 -73 -7 0 -6 8 -10 18 -10 34 0 138 -59 150 -84 l11
-25 -34 24 c-76 51 -213 58 -312 15 -57 -24 -146 -83 -138 -91 3 -3 35 -2 72
2 176 19 175 19 164 6 -20 -25 3 -35 74 -34 39 0 79 -5 90 -11 17 -10 14 -11
-25 -12 -57 0 -151 -24 -208 -53 -95 -47 -172 -166 -180 -279 -2 -37 -1 -75 3
-85 5 -15 11 -10 30 28 13 25 31 51 39 58 9 8 16 20 16 27 0 8 5 14 10 14 6 0
10 -11 10 -24 0 -14 4 -27 9 -30 11 -7 31 38 31 72 0 21 3 23 10 12 8 -13 10
-12 15 1 3 9 16 16 28 15 23 -1 31 3 76 46 32 30 41 27 41 -14 0 -15 5 -28 10
-28 6 0 10 4 10 9 0 14 57 71 71 71 8 0 4 -9 -9 -22 -28 -31 -88 -155 -103
-213 -18 -73 -7 -202 25 -270 52 -114 166 -235 222 -235 13 0 24 2 24 5 0 3
-18 29 -39 58 -47 63 -81 125 -81 149 0 14 8 17 36 16 44 -2 58 17 37 49 -8
13 -11 23 -7 23 5 0 -6 10 -23 21 -38 24 -43 38 -10 32 12 -2 35 0 50 6 l27
11 -25 49 c-13 27 -29 52 -35 56 -5 3 -10 11 -10 17 0 6 10 2 23 -10 13 -12
28 -22 34 -22 15 0 34 50 42 112 l7 53 17 -38 c9 -21 22 -44 30 -51 9 -10 18
-67 26 -178 12 -147 47 -460 72 -628 6 -36 12 -171 15 -300 3 -129 7 -236 9
-238 5 -5 173 19 196 27 18 7 11 41 -106 532 -62 260 -89 401 -115 609 -16
133 -17 153 -3 192 8 24 18 47 23 51 14 15 51 -25 80 -86 l28 -57 36 40 c39
43 44 36 21 -30 -27 -77 -16 -88 48 -45 43 30 46 22 12 -44 -25 -51 -24 -61 7
-61 20 0 22 -18 19 -135 l-2 -60 36 50 c64 89 98 249 75 361 -24 117 -105 217
-201 245 -46 14 -35 29 22 29 23 0 39 6 43 15 6 17 27 12 69 -17 29 -21 31
-18 27 32 -2 25 -2 25 32 -7 41 -40 68 -43 68 -8 0 14 3 25 8 25 4 0 44 -33
88 -72 121 -110 112 -106 103 -49 -10 62 -52 145 -92 183 -18 16 -54 41 -82
56 -44 23 -62 27 -145 27 -83 0 -102 -3 -154 -28 -34 -16 -53 -21 -46 -12 7 8
37 26 68 41 40 19 51 28 41 35 -10 6 -5 9 17 9 17 0 37 7 44 15 7 8 18 15 25
15 8 0 15 4 17 10 4 13 98 30 167 30 l56 0 -39 26 c-85 58 -220 80 -321 53
-47 -13 -169 -130 -203 -194 -12 -22 -21 -34 -22 -27 0 24 41 93 95 156 29 35
51 67 48 70 -9 9 -44 6 -72 -5z"/>
<path d="M4926 5327 c3 -10 9 -15 12 -12 3 3 0 11 -7 18 -10 9 -11 8 -5 -6z"/>
<path d="M5951 5243 l-21 -26 21 -23 c12 -13 26 -21 31 -18 4 3 11 -3 14 -13
6 -21 20 -47 43 -83 9 -14 -13 5 -49 41 -75 75 -128 104 -222 119 -108 17
-141 7 -214 -65 -35 -35 -64 -70 -64 -79 0 -20 3 -20 50 4 48 24 53 25 41 2
-14 -26 -40 -132 -32 -132 12 0 107 104 130 143 13 20 30 37 39 37 12 0 13 -3
4 -12 -20 -20 -14 -23 45 -21 32 1 50 -1 41 -3 -29 -9 -21 -20 25 -34 l42 -14
-60 -8 c-138 -19 -228 -66 -266 -141 -18 -33 -18 -42 -7 -68 7 -16 15 -29 18
-29 3 0 13 14 23 31 13 23 23 30 37 26 11 -3 20 -2 20 2 0 4 16 15 35 24 34
16 35 16 35 -3 0 -25 11 -25 40 0 13 11 31 20 41 20 16 0 17 -3 7 -25 -6 -14
-9 -27 -6 -30 3 -3 30 6 62 20 62 28 66 29 66 17 0 -4 -16 -16 -36 -27 -54
-29 -126 -114 -149 -176 -45 -122 -18 -278 56 -325 21 -13 41 -24 43 -24 3 0
-5 21 -18 48 -30 60 -42 97 -28 88 6 -3 13 7 17 23 4 19 12 28 23 27 18 -1 21
23 7 59 -7 16 -6 18 6 8 21 -20 31 -15 18 10 -11 20 -11 21 5 8 23 -19 30 -8
17 30 -16 47 -14 56 9 31 33 -35 58 -28 80 21 l19 42 0 -81 c3 -262 -90 -791
-191 -1091 -29 -84 -49 -155 -46 -159 13 -12 85 -24 150 -24 65 0 67 1 72 28
16 76 38 313 51 535 8 137 17 252 19 255 2 4 9 105 16 226 12 227 17 256 52
294 28 29 34 28 42 -5 3 -16 14 -39 25 -52 l19 -24 16 29 c16 29 16 29 14 -36
-3 -56 -1 -65 15 -68 11 -2 32 8 48 24 l29 28 -6 -34 c-4 -19 -13 -48 -21 -63
-15 -30 -20 -83 -10 -94 4 -3 18 -1 32 5 21 10 25 9 25 -4 0 -19 -34 -87 -72
-141 -34 -51 -19 -58 34 -15 55 43 96 95 126 158 24 52 27 71 27 159 0 121
-16 169 -86 261 -53 68 -53 76 -1 44 43 -26 60 -25 68 5 8 34 15 32 41 -13 14
-23 22 -31 23 -19 0 25 19 21 30 -7 5 -13 23 -32 40 -42 18 -11 40 -38 53 -66
12 -26 25 -47 29 -48 13 0 19 77 8 124 -33 149 -161 245 -292 217 -57 -13 -72
-9 -36 9 12 7 31 19 41 28 15 14 16 17 2 32 -14 16 -7 17 100 16 63 -1 115 2
115 6 0 18 -81 58 -145 73 -106 25 -185 0 -262 -83 -24 -24 -43 -39 -43 -31 0
8 31 44 69 80 51 49 66 70 58 78 -24 24 -113 3 -159 -38 l-32 -28 22 -39 23
-39 -28 31 c-15 16 -43 51 -60 77 -37 54 -53 58 -82 20z"/>
<path d="M6115 3339 c-180 -26 -221 -34 -345 -65 -74 -18 -169 -44 -210 -58
l-74 -24 38 -16 c21 -9 40 -16 42 -16 2 0 52 -23 112 -50 72 -33 116 -48 128
-43 11 3 73 43 138 87 65 45 151 103 190 129 109 74 109 74 -19 56z"/>
<path d="M4802 3254 c9 -9 21 -15 27 -13 6 2 -2 10 -17 17 -25 11 -25 11 -10
-4z"/>
<path d="M4780 3226 c0 -2 7 -6 15 -10 8 -3 15 -1 15 4 0 6 -7 10 -15 10 -8 0
-15 -2 -15 -4z"/>
<path d="M4690 3110 c-9 -6 -10 -10 -3 -10 6 0 15 5 18 10 8 12 4 12 -15 0z"/>
</g>
</svg>
